# xmcd CD database file
#
# Track frame offsets:
#	150
#	15244
#	31886
#	52400
#	71066
#	87556
#	104795
#	120447
#	135308
#	151503
#	171417
#	174165
#
# Disc length: 2555 seconds
#
# Revision: 0
# Processed by: cddbd v1.5.1PL2 Copyright (c) Steve Scherf et al.
# Submitted via: CDex 1.51
#
DISCID=9709f90c
DTITLE=グローランサー?オリジナルキャラクターソングアルバム - グローランサー?オリジナルキャラクターソングアルバム
DYEAR=2005
DGENRE=ゲーム
TTITLE0=決めてね Darlin'☆
TTITLE1=アナタを独り占め
TTITLE2=流星
TTITLE3=Silent Dreamer
TTITLE4=Blue Moon
TTITLE5=最高のラストシーン
TTITLE6=微笑みのワルツ
TTITLE7=Stray Cat
TTITLE8=Everlasting Glory
TTITLE9=約束（Remastering Ver.）
TTITLE10=Rising Sun（Instrumentel）
TTITLE11=SAILING
EXTD=YEAR: 2005
EXTT0=
EXTT1=
EXTT2=
EXTT3=
EXTT4=
EXTT5=
EXTT6=
EXTT7=
EXTT8=
EXTT9=
EXTT10=
EXTT11=
PLAYORDER=
